<svg width="56" height="56" viewBox="0 0 56 56" fill="none" xmlns="http://www.w3.org/2000/svg">
<path fill-rule="evenodd" clip-rule="evenodd" d="M12.3226 8.00488C10.8233 8.00488 9.59668 9.25288 9.59668 10.7782V46.8316C9.59668 48.3569 10.8233 49.6049 12.3226 49.6049H43.6708C45.17 49.6049 46.3967 48.3569 46.3967 46.8316V10.7782C46.3967 9.25288 45.17 8.00488 43.6708 8.00488H12.3226Z" fill="white" stroke="#006DB7" stroke-width="3"/>
<path fill-rule="evenodd" clip-rule="evenodd" d="M36.6272 18.875V16.4113C36.6272 16.237 36.4859 16.0957 36.3116 16.0957H31.1718C30.9975 16.0957 30.8562 16.237 30.8562 16.4113V18.875H25.7022V16.4113C25.7022 16.237 25.5609 16.0957 25.3866 16.0957H20.2831C20.1088 16.0957 19.9675 16.237 19.9675 16.4113V18.875H17.9602C17.7858 18.875 17.6445 19.0163 17.6445 19.1906V30.8023C17.6445 30.9766 17.7858 31.1179 17.9602 31.1179H39.1789C39.3532 31.1179 39.4945 30.9766 39.4945 30.8023V19.1906C39.4945 19.0163 39.3532 18.875 39.1789 18.875H36.6272Z" fill="white" stroke="#006DB7" stroke-width="2"/>
<path fill-rule="evenodd" clip-rule="evenodd" d="M17.7725 38.4487H38.7621V36.2578H17.7725V38.4487Z" fill="#006DB7"/>
<path fill-rule="evenodd" clip-rule="evenodd" d="M17.7725 43.6948H38.7621V41.5039H17.7725V43.6948Z" fill="#006DB7"/>
</svg>
