<svg width="56" height="56" viewBox="0 0 56 56" fill="none" xmlns="http://www.w3.org/2000/svg">
<path fill-rule="evenodd" clip-rule="evenodd" d="M48.0586 40.2201L41.5723 33.7184C40.2804 32.4287 38.1409 32.4679 36.8039 33.8084L33.5361 37.0829C33.3297 36.9688 33.116 36.8497 32.8913 36.7233C30.8277 35.5773 28.0033 34.0066 25.0313 31.0256C22.0504 28.0384 20.4818 25.2032 19.3349 23.1336C19.2139 22.9144 19.0979 22.703 18.9834 22.5022L21.1766 20.3073L22.2548 19.2253C23.5938 17.8829 23.6307 15.7392 22.3418 14.4458L15.8555 7.94336C14.5666 6.65175 12.4262 6.69093 11.0872 8.03334L9.25911 9.87605L9.30906 9.92576C8.69609 10.7097 8.18387 11.6138 7.8027 12.5888C7.45132 13.5169 7.23256 14.4025 7.13253 15.2899C6.27606 22.4063 9.5207 28.9102 18.3262 37.7358C30.4982 49.9345 40.3072 49.013 40.7303 48.968C41.652 48.8575 42.5352 48.6368 43.4328 48.2874C44.3972 47.9099 45.2987 47.3972 46.0803 46.7842C46.862 46.1712 47.9722 45.0022 47.9722 45.0022C49.3084 43.66 49.3469 41.5156 48.0586 40.2201Z" fill="white" stroke="#006DB7" stroke-width="3.00001"/>
</svg>
