<svg width="56" height="56" viewBox="0 0 56 56" fill="none" xmlns="http://www.w3.org/2000/svg">
<path fill-rule="evenodd" clip-rule="evenodd" d="M43.4884 18.0506V12.8928C43.4884 12.7309 43.3571 12.5996 43.1952 12.5996H32.6885C32.5266 12.5996 32.3954 12.7309 32.3954 12.8928V18.0506H22.4884V12.8928C22.4884 12.7309 22.3571 12.5996 22.1952 12.5996H11.7583C11.5964 12.5996 11.4651 12.7309 11.4651 12.8928V18.0506H7.29316C7.13125 18.0506 7 18.1818 7 18.3437V41.7691C7 41.931 7.13125 42.0623 7.29316 42.0623H48.7068C48.8688 42.0623 49 41.931 49 41.7691V18.3437C49 18.1818 48.8688 18.0506 48.7068 18.0506H43.4884Z" fill="white" stroke="#006DB7" stroke-width="3"/>
<path d="M26.2724 31.4344H28.1876C28.1708 31.3336 28.154 31.216 28.154 31.0816C28.154 30.5776 28.658 30.1912 29.33 29.6032C30.254 28.7968 30.7244 28.1416 30.7244 27.1504C30.7244 25.3696 29.246 24.2104 27.4148 24.2104C25.8356 24.2104 24.5924 25.0504 24.1052 26.764L25.9532 27.5704C26.2724 26.7304 26.726 26.2936 27.3476 26.2936C27.9356 26.2936 28.406 26.7136 28.406 27.3184C28.406 27.856 28.1036 28.1584 27.4148 28.7296C26.5916 29.3848 26.0876 29.956 26.0876 30.628C26.0876 30.9136 26.1716 31.216 26.2724 31.4344ZM27.2972 35.7016C28.1876 35.7016 28.8596 35.0296 28.8596 34.1392C28.8596 33.2656 28.1876 32.5768 27.2972 32.5768C26.39 32.5768 25.718 33.2656 25.718 34.1392C25.718 35.0296 26.39 35.7016 27.2972 35.7016Z" fill="#006DB7"/>
</svg>
