<svg width="56" height="56" viewBox="0 0 56 56" fill="none" xmlns="http://www.w3.org/2000/svg">
<g style="mix-blend-mode:darken">
<path d="M12 17.791L26.1975 11L40.737 17.7091V37.4274L27.1382 45.3638L12 37.5093V17.791Z" fill="#F8F8F8" stroke="#006DB7" stroke-width="3"/>
<path d="M12.75 18.3125L26.7386 25.0475V45.3571" stroke="#006DB7" stroke-width="2.5"/>
<path d="M26.7456 24.8471L40.3891 18.2051" stroke="#006DB7" stroke-width="2.5"/>
</g>
<circle cx="40.1919" cy="16.1924" r="12" fill="white"/>
<path fill-rule="evenodd" clip-rule="evenodd" d="M54 28.1528C54 28.6528 53.8168 29.0856 53.4512 29.4512C53.0856 29.8168 52.6528 30 52.1528 30C51.6344 30 51.2016 29.8168 50.856 29.4512L45.9088 24.5184C44.1872 25.7104 42.2696 26.3072 40.1536 26.3072C38.7792 26.3072 37.464 26.04 36.2096 25.5056C34.9544 24.9728 33.8736 24.2512 32.964 23.3432C32.0544 22.4344 31.3344 21.3528 30.8008 20.0984C30.2672 18.8432 30 17.5296 30 16.1544C30 14.7792 30.2672 13.464 30.8008 12.2088C31.3352 10.9544 32.056 9.8728 32.964 8.964C33.8736 8.056 34.9544 7.3344 36.2096 6.8016C37.464 6.2672 38.78 6 40.1536 6C41.5288 6 42.844 6.2672 44.0984 6.8016C45.3528 7.3344 46.4344 8.056 47.344 8.964C48.252 9.8728 48.9736 10.9544 49.5072 12.2088C50.04 13.464 50.308 14.7792 50.308 16.1544C50.308 18.2696 49.7112 20.1888 48.5184 21.9088L53.4664 26.856C53.8216 27.2104 54 27.6448 54 28.1528ZM47 16C47 14.0714 46.3153 12.4229 44.9443 11.0534C43.575 9.68388 41.9274 9 40 9C38.0743 9 36.425 9.68388 35.0557 11.0534C33.6847 12.4229 33 14.0714 33 16C33 17.9268 33.6847 19.5754 35.0557 20.9449C36.425 22.3161 38.0743 23 40 23C41.9274 23 43.575 22.3161 44.9443 20.9449C46.3153 19.5754 47 17.9268 47 16Z" fill="#006DB7"/>
</svg>
